<svg xmlns="http://www.w3.org/2000/svg" xmlns:svg="http://www.w3.org/2000/svg" id="svg8" width="61" height="61" version="1.1" viewBox="0 0 16.14 16.14"><defs id="defs2"><style id="style833">.a{fill:none;stroke:#000;stroke-linecap:round;stroke-linejoin:round}</style></defs><metadata id="metadata5"/><g id="layer1"><g id="g862" transform="matrix(4.4097222,0,0,4.4097222,-3.7797614,12.851191)"><path style="fill:#fff;fill-opacity:1;stroke:#003064;stroke-width:.177333;stroke-linecap:round;stroke-linejoin:round;stroke-miterlimit:4;stroke-dasharray:none;stroke-opacity:1" id="path837" d="M 4.0204621,0.06672772 C 3.4969819,0.09006323 2.8077748,0.07502487 2.3285373,0.07218525 L 1.7458783,0.51930892 1.7270388,0.06902805 1.4620208,0.06672995 C 1.3763891,0.06598294 1.3069642,4.4591242e-4 1.3069642,-0.08131829 V -2.5240975 c 0,-0.081764 0.069421,-0.1480473 0.1550572,-0.1480473 h 2.558441 c 0.085636,0 0.155057,0.066284 0.155057,0.1480473 v 2.44277921 c 0,0.0817642924 -0.06942,0.14804736 -0.155057,0.14804736 z" class="a"/><path id="path864" d="m 2.0889057,-1.9202638 1.3604714,0.699428 -1.266712,0.60842011" style="fill:none;stroke:#003064;stroke-width:.134347;stroke-linecap:butt;stroke-linejoin:round;stroke-miterlimit:4;stroke-dasharray:none;stroke-opacity:1"/><ellipse id="path866" cx="2.149" cy="-1.875" rx=".216" ry=".213" style="fill:#fff;stroke:#003064;stroke-width:.0972406;stroke-linejoin:round;stroke-miterlimit:4;stroke-dasharray:none;stroke-opacity:1"/><ellipse style="fill:#fff;stroke:#003064;stroke-width:.0972406;stroke-linejoin:round;stroke-miterlimit:4;stroke-dasharray:none;stroke-opacity:1" id="path866-7" cx="2.205" cy="-.698" rx=".216" ry=".213"/><ellipse style="fill:#fff;stroke:#003064;stroke-width:.0972406;stroke-linejoin:round;stroke-miterlimit:4;stroke-dasharray:none;stroke-opacity:1" id="path866-8" cx="3.421" cy="-1.248" rx=".216" ry=".213"/></g></g></svg>